<?xml version="1.0" standalone="no"?><!DOCTYPE svg PUBLIC "-//W3C//DTD SVG 1.1//EN" "http://www.w3.org/Graphics/SVG/1.1/DTD/svg11.dtd"><svg class="icon" width="16px" height="16.00px" viewBox="0 0 1024 1024" version="1.1" xmlns="http://www.w3.org/2000/svg"><path fill="#07c160" d="M512.07424 228.935998a234.641113 234.641113 0 1 0 0 469.355368A234.641113 234.641113 0 0 0 512.07424 228.935998z m0 73.142492a161.498621 161.498621 0 1 1 0 323.070384A161.498621 161.498621 0 0 1 512.07424 302.07849z"  /><path fill="#07c160" d="M512.07424 625.075732a393.140891 393.140891 0 0 1 350.571961 215.18521 36.571246 36.571246 0 1 1-65.243102 33.133548 319.9984 319.9984 0 0 0-570.657718 0 36.571246 36.571246 0 0 1-65.243102-33.133548A393.140891 393.140891 0 0 1 512.07424 625.075732zM977.69934 205.676686a36.571246 36.571246 0 0 1-46.664909 55.954006l-5.046832-4.242265-168.081445-168.081445a36.571246 36.571246 0 0 1 46.664909-55.954006l5.119975 4.242265 168.008302 168.081445z"  /><path fill="#07c160" d="M979.381618 37.595241a36.571246 36.571246 0 0 1 4.242264 46.664909l-4.242264 5.119975-168.081446 168.008302a36.571246 36.571246 0 0 1-55.954005-46.664909l4.242264-5.046832L927.669876 37.595241a36.571246 36.571246 0 0 1 51.711742 0z"  /><path fill="#07c160" d="M512.001098 0c27.062722 0 54.052301 2.121132 80.676168 6.436539a36.571246 36.571246 0 1 1-11.702799 72.191639 438.854949 438.854949 0 1 0 364.469035 364.469035 36.571246 36.571246 0 0 1 72.191639-11.702799A511.99744 511.99744 0 1 1 512.07424 0z"  /></svg>