<?xml version="1.0" standalone="no"?><!DOCTYPE svg PUBLIC "-//W3C//DTD SVG 1.1//EN"
        "http://www.w3.org/Graphics/SVG/1.1/DTD/svg11.dtd">
<svg class="icon" width="48px" height="48px" viewBox="0 0 1024 1024" version="1.1"
     xmlns="http://www.w3.org/2000/svg">
    <path fill="#07c160"
          d="M108.497455 784.058182l-0.046546 0.023273 0.046546-0.023273M826.181818 826.181818V930.909091a34.909091 34.909091 0 0 1-69.818182 0v-104.727273H651.636364a34.909091 34.909091 0 0 1 0-69.818182h104.727272V651.636364a34.909091 34.909091 0 0 1 69.818182 0v104.727272H930.909091a34.909091 34.909091 0 0 1 0 69.818182h-104.727273z m-209.454545 151.272727h-512A58.251636 58.251636 0 0 1 46.545455 919.272727v-146.222545c0-24.994909 15.895273-47.150545 39.586909-55.133091L360.727273 625.012364v-42.309819c-69.12-67.444364-116.363636-175.406545-116.363637-268.520727C244.363636 166.609455 364.427636 46.545455 512 46.545455s267.636364 120.064 267.636364 267.636363c0 93.114182-47.243636 201.076364-116.363637 268.520727v44.078546a34.909091 34.909091 0 0 1-69.818182 0v-59.322182c0-10.030545 4.328727-19.595636 11.892364-26.251636 60.532364-53.085091 104.471273-148.549818 104.471273-227.025455C709.818182 205.102545 621.056 116.363636 512 116.363636c-109.079273 0-197.818182 88.738909-197.818182 197.818182 0 78.475636 43.938909 173.940364 104.471273 227.025455 7.540364 6.656 11.892364 16.221091 11.892364 26.251636v82.594909c0 14.987636-9.541818 28.276364-23.738182 33.070546L116.363636 781.405091V907.636364h500.363637a34.909091 34.909091 0 1 1 0 69.818181z"/>
</svg>