<?xml version="1.0" standalone="no"?><!DOCTYPE svg PUBLIC "-//W3C//DTD SVG 1.1//EN"
        "http://www.w3.org/Graphics/SVG/1.1/DTD/svg11.dtd">
<svg class="icon" width="48px" height="48px" viewBox="0 0 1025 1024" version="1.1"
     xmlns="http://www.w3.org/2000/svg">
    <path fill="#07c160"
          d="M512.732526 0.000731c27.062722 0 54.052301 2.121132 80.676168 6.43654a36.571246 36.571246 0 1 1-11.702798 72.191639 438.854949 438.854949 0 0 0-394.311172 727.840932 392.921464 392.921464 0 0 1 184.538506-146.50441 234.641113 234.641113 0 1 1 281.671735 0.146285 392.190039 392.190039 0 0 1 184.611648 146.284982 437.392099 437.392099 0 0 0 107.958317-363.298754 36.571246 36.571246 0 0 1 72.191639-11.702799A511.99744 511.99744 0 1 1 512.805669 0.000731zM512.805669 706.996054a319.9984 319.9984 0 0 0-271.139216 150.01525A436.514389 436.514389 0 0 0 512.805669 950.85312c102.399488 0 196.533874-35.108396 271.212358-93.768674A320.144685 320.144685 0 0 0 512.805669 706.996054zM512.805669 310.85632a161.498621 161.498621 0 1 0 0 323.070385A161.498621 161.498621 0 0 0 512.805669 310.85632zM870.545594 0.000731a36.571246 36.571246 0 0 1 35.986106 29.988422l0.58514 6.582824v83.455583H988.231863a36.571246 36.571246 0 0 1 6.582824 72.557351l-6.582824 0.58514h-81.115023V274.285074a36.571246 36.571246 0 0 1-72.557352 6.582825l-0.58514-6.582825V193.170051H750.518766a36.571246 36.571246 0 0 1-6.582824-72.557351l6.582824-0.58514h83.455582V36.571977a36.571246 36.571246 0 0 1 36.571246-36.571246z"/>
</svg>