<?xml version="1.0" standalone="no"?><!DOCTYPE svg PUBLIC "-//W3C//DTD SVG 1.1//EN"
        "http://www.w3.org/Graphics/SVG/1.1/DTD/svg11.dtd">
<svg class="icon" width="32px" height="32.00px" viewBox="0 0 1024 1024" version="1.1"
     xmlns="http://www.w3.org/2000/svg">
    <path fill="#07c160"
          d="M926.279619 777.708721L529.180079 983.578523a196.780627 196.780627 0 0 1-90.469747 22.106171v-0.064923c-26.033993 0-51.840756-5.193814-75.829684-15.28929L260.530051 947.5789a144.842487 144.842487 0 0 0-111.699462-8.472409l-77.290444 25.74184a23.924006 23.924006 0 1 1-15.159445-45.445872l77.290444-25.676918a190.872664 190.872664 0 0 1 146.790168 10.420089l100.922298 42.069894a148.348312 148.348312 0 0 0 125.755221-5.193814l397.164463-205.869802a47.133862 47.133862 0 0 0-34.636247-87.191152l-191.846504 54.924582A23.891544 23.891544 0 1 1 664.673701 656.920085l191.846504-54.85966a94.949412 94.949412 0 1 1 69.759414 175.648296z m-302.799355-208.629015a215.218667 215.218667 0 0 1-215.186205-215.218667 215.218667 215.218667 0 1 1 215.186205 215.218667z m0-382.621784a167.403117 167.403117 0 1 0 167.403117 167.403117 167.597885 167.597885 0 0 0-167.403117-167.403117z m-112.218843-64.825291a144.90741 144.90741 0 1 0-142.018351 230.800109 23.891544 23.891544 0 1 1-8.861945 46.971555 192.787883 192.787883 0 1 1 188.795138-306.921945 23.891544 23.891544 0 1 1-37.914842 29.150281z m-6.167654 488.186053l67.616965 27.105217a88.716835 88.716835 0 0 1 14.445296 157.340102 87.87284 87.87284 0 0 1-68.91542 11.101778l-170.811557-42.654198a23.924006 23.924006 0 0 1 11.588697-46.452174l170.844019 42.654198a40.836362 40.836362 0 0 0 25.092614-77.647519l-67.649427-27.072756a360.645458 360.645458 0 0 0-231.611642-11.880849l-209.051013 59.728861a23.891544 23.891544 0 0 1-13.179303-45.900331l209.083474-59.793784a408.590854 408.590854 0 0 1 262.547297 13.471455z"/>
    <path fill="#07c160"
          d="M564.40063 258.327323a12.270386 12.270386 0 0 1 16.814973-3.440902l59.761322 38.758837 58.00841-38.661453c5.550889-3.570747 12.984535-2.077526 16.685127 3.343518a11.880849 11.880849 0 0 1-3.083827 16.522821l-59.371786 39.57037v19.41188h74.823383c4.317358 0 8.342564 2.272294 10.485012 5.972886a11.815927 11.815927 0 0 1 0 11.978233 12.075618 12.075618 0 0 1-10.485012 6.005348h-74.823383v33.435177l74.920767 0.584304a12.14054 12.14054 0 0 1 10.452551 6.07027 11.815927 11.815927 0 0 1-0.097384 11.978234 12.14054 12.14054 0 0 1-10.549935 5.907963l-74.725999-0.584304v34.409018a12.010695 12.010695 0 0 1-12.108079 11.978233 12.043156 12.043156 0 0 1-12.14054-11.978233v-34.506402h-76.673679a12.14054 12.14054 0 0 1-10.485012-5.972886 11.815927 11.815927 0 0 1 0-11.978233 12.108079 12.108079 0 0 1 10.485012-6.005348H628.96623v-33.337793h-76.673679a12.010695 12.010695 0 0 1-12.108079-11.978234 12.010695 12.010695 0 0 1 12.108079-11.978233H628.96623v-19.314496l-61.092237-39.602832a11.848388 11.848388 0 0 1-3.473363-16.587743z"/>
</svg>