<?xml version="1.0" standalone="no"?><!DOCTYPE svg PUBLIC "-//W3C//DTD SVG 1.1//EN" "http://www.w3.org/Graphics/SVG/1.1/DTD/svg11.dtd"><svg class="icon" width="16px" height="16.00px" viewBox="0 0 1024 1024" version="1.1" xmlns="http://www.w3.org/2000/svg"><path fill="#07c160" d="M146.285714 0h731.428572a146.285714 146.285714 0 0 1 146.285714 146.285714v731.428572a146.285714 146.285714 0 0 1-146.285714 146.285714H146.285714a146.285714 146.285714 0 0 1-146.285714-146.285714V146.285714a146.285714 146.285714 0 0 1 146.285714-146.285714z m476.525715 353.170286c97.206857 0 169.069714-32.402286 181.76-64.841143C804.571429 247.808 720.018286 219.428571 622.811429 219.428571c-101.485714 0-186.038857 28.379429-186.038858 68.900572 12.690286 32.438857 84.553143 64.841143 186.002286 64.841143z m5.412571 280.027428c-12.288 0-28.672 0-40.96-4.169143v91.940572h40.96c98.450286 0 176.347429-25.051429 176.347429-58.514286v-75.227428c-40.996571 29.257143-102.509714 45.970286-176.347429 45.970285z m0-135.131428c-12.288 0-28.672 0-40.96-4.022857v89.124571c12.288 0 28.672 4.059429 40.96 4.059429 94.354286 0 164.059429-32.402286 176.347429-64.841143V453.485714c-40.996571 28.379429-102.509714 44.580571-176.347429 44.580572z m-3.291429-100.315429c-81.261714 0-145.408-20.260571-188.16-44.580571v44.617143c85.540571 8.045714 162.523429 36.461714 166.765715 89.124571h17.115428c98.377143 0 171.081143-32.402286 183.917715-64.841143V353.170286c-38.473143 24.32-102.656 44.617143-179.638858 44.617143z m-221.622857 139.337143c98.377143 0 171.081143-32.438857 183.954286-64.841143 0-36.498286-81.298286-68.900571-183.954286-68.900571-98.377143 4.022857-183.881143 32.402286-183.881143 68.900571 12.8 36.461714 85.540571 64.841143 183.917715 64.841143z m0 133.741714c98.377143 0 171.081143-31.451429 183.954286-62.939428v-70.802286c-38.509714 27.538286-102.692571 43.264-183.954286 43.264-81.225143 0-141.129143-15.725714-183.881143-43.264v70.802286c12.8 31.451429 85.540571 62.902857 183.917715 62.902857z m0 45.970286c-76.946286 0-145.408-16.713143-183.881143-45.970286V746.057143c0 33.426286 85.540571 58.514286 183.917715 58.514286s183.881143-25.088 183.881143-58.514286v-75.227429c-38.473143 25.088-102.656 45.970286-183.881143 45.970286z"  /></svg>