<?xml version="1.0" standalone="no"?><!DOCTYPE svg PUBLIC "-//W3C//DTD SVG 1.1//EN" "http://www.w3.org/Graphics/SVG/1.1/DTD/svg11.dtd"><svg class="icon" width="16px" height="16.00px" viewBox="0 0 1024 1024" version="1.1" xmlns="http://www.w3.org/2000/svg"><path fill="#07c160" d="M473.088 564.443429a111.323429 111.323429 0 0 1-62.171429-8.192c-20.041143 33.645714-35.328 70.144-45.202285 108.982857 41.398857 15.945143 70.948571 55.808 70.948571 102.765714 0 47.030857-29.549714 86.893714-70.948571 102.838857 7.021714 27.574857 16.822857 54.052571 28.964571 79.067429H66.267429c-36.571429 0-66.267429-32.914286-66.267429-69.485715V692.297143c0-14.994286 4.827429-29.403429 14.189714-41.106286 34.742857-43.446857 140.068571-139.556571 392.777143-139.556571 42.203429-0.146286 58.075429 2.340571 99.766857 8.484571a197.705143 197.705143 0 0 0-33.645714 44.324572zM407.04 0a234.203429 234.203429 0 1 1-234.276571 234.057143c0-129.243429 104.886857-234.057143 234.276571-234.057143z"  /><path fill="#07c160" d="M978.870857 768c0-29.988571 18.797714-55.296 45.129143-65.462857a262.582857 262.582857 0 0 0-28.672-69.266286 69.997714 69.997714 0 0 1-92.525714-92.598857A263.753143 263.753143 0 0 0 833.462857 512a70.070857 70.070857 0 0 1-130.925714 0 262.582857 262.582857 0 0 0-69.266286 28.672 70.070857 70.070857 0 0 1-92.525714 92.598857c-12.726857 21.357714-22.454857 44.617143-28.745143 69.266286a70.070857 70.070857 0 0 1 0 130.925714c6.290286 24.649143 16.018286 47.908571 28.672 69.266286a69.997714 69.997714 0 0 1 92.525714 92.598857c21.430857 12.653714 44.690286 22.381714 69.339429 28.672a70.070857 70.070857 0 0 1 130.925714 0 262.582857 262.582857 0 0 0 69.266286-28.672 70.070857 70.070857 0 0 1 92.525714-92.598857c12.726857-21.357714 22.454857-44.617143 28.745143-69.266286a70.070857 70.070857 0 0 1-45.129143-65.462857z m-210.870857 70.217143a70.290286 70.290286 0 1 1 0-140.580572 70.290286 70.290286 0 0 1 0 140.653715z"  /></svg>