<?xml version="1.0" standalone="no"?><!DOCTYPE svg PUBLIC "-//W3C//DTD SVG 1.1//EN"
        "http://www.w3.org/Graphics/SVG/1.1/DTD/svg11.dtd">
<svg t="1766820588730" class="icon" viewBox="0 0 1024 1024" version="1.1" xmlns="http://www.w3.org/2000/svg"
     p-id="17843" xmlns:xlink="http://www.w3.org/1999/xlink" width="24" height="24">
    <path d="M317.701905 732.708972c0 38.863292 23.288589 65.972092 44.409943 65.972091v0.330595h303.853643c21.121355 0 44.409944-27.218998 44.409944-65.972091V353.846971H317.701905v378.862001z m271.455321-249.525846c0-19.431646 12.783011-34.896151 28.247516-34.896151 15.574703 0 28.247516 15.464505 28.247516 34.896151v199.16519c0 19.431646-12.783011 34.896151-28.247516 34.896151-15.942031 0-28.247516-15.574703-28.247516-34.896151v-199.16519z m-107.516877 0c0-19.431646 12.783011-34.896151 28.247516-34.896151 15.574703 0 28.247516 15.464505 28.247515 34.896151v199.16519c0 19.431646-12.746278 34.896151-28.247515 34.896151-15.464505 0-28.247516-15.574703-28.247516-34.896151v-199.16519z m-102.264089 0c0-19.431646 12.746278-34.896151 28.247516-34.896151 15.574703 0 28.247516 15.464505 28.247516 34.896151v199.16519c0 19.431646-12.783011 34.896151-28.247516 34.896151-15.831833 0-28.247516-15.574703-28.247516-34.896151v-199.16519zM517.675216 220.653872c-37.063386 0-67.00061 28.467913-69.461707 65.163971h138.592819c-2.167235-36.585859-32.104459-65.16397-69.131112-65.163971z"
          fill="#FF002B" p-id="17844"></path>
    <path d="M512.422427 2.681494c-279.977329 0-506.912509 226.93518-506.912508 506.912508s226.93518 506.912509 506.912508 506.912509 506.912509-226.93518 506.912509-506.912509-226.971912-506.912509-506.912509-506.912508z m295.441834 351.165477h-33.904366v378.862001c0 71.518743-48.340352 129.336155-107.884205 129.336155H362.222047c-59.654052 0-107.884206-58.18474-107.884206-129.336155V353.589841H216.943861c-18.733723 0-33.904366-15.244108-33.904366-33.904366 0-18.733723 15.244108-33.904366 33.904366-33.904365h167.758654c2.49783-71.628941 60.902967-128.674965 132.862503-128.674965 71.959537 0 130.474872 57.046024 132.605373 128.895362h157.69387c18.733723 0 33.904366 15.244108 33.904365 33.904365 0 18.770456-15.280841 33.941098-33.904365 33.941099z"
          fill="#FF002B" p-id="17845"></path>
</svg>