<?xml version="1.0" standalone="no"?><!DOCTYPE svg PUBLIC "-//W3C//DTD SVG 1.1//EN"
        "http://www.w3.org/Graphics/SVG/1.1/DTD/svg11.dtd">
<svg t="1766820602687" class="icon" viewBox="0 0 1024 1024" version="1.1" xmlns="http://www.w3.org/2000/svg"
     p-id="18829" xmlns:xlink="http://www.w3.org/1999/xlink" width="24" height="24">
    <path d="M512 1023.998138a508.600332 508.600332 0 0 1-362.029229-149.968909A508.646878 508.646878 0 0 1 0.001862 512a508.646878 508.646878 0 0 1 149.968909-362.029229A508.600332 508.600332 0 0 1 512 0.001862a512.603227 512.603227 0 0 1 511.998138 511.998138 512.603227 512.603227 0 0 1-511.998138 511.998138zM283.928102 360.727823v439.666765a35.93296 35.93296 0 0 0 34.164239 37.236228h398.986186a35.979506 35.979506 0 0 0 34.210785-37.236228V360.727823H283.928102z m-22.80719-99.746547a29.975164 29.975164 0 0 0-28.485714 31.185342v31.185341h558.543423v-31.185341a29.975164 29.975164 0 0 0-28.485714-31.185342h-182.410973v-43.659477a29.975164 29.975164 0 0 0-28.485715-31.185341h-74.100094a29.975164 29.975164 0 0 0-28.485715 31.185341v43.659477z m393.261116 502.037448h-5.678525a29.975164 29.975164 0 0 1-28.53226-31.185342v-258.884876a29.975164 29.975164 0 0 1 28.53226-31.185342h5.678525a29.975164 29.975164 0 0 1 28.485714 31.185342v258.884876a29.975164 29.975164 0 0 1-28.346078 31.185342z m-136.796594 0H512a29.975164 29.975164 0 0 1-28.485715-31.185342v-258.884876a29.975164 29.975164 0 0 1 28.485715-31.185342h5.678525a29.975164 29.975164 0 0 1 28.53226 31.185342v258.884876a29.975164 29.975164 0 0 1-28.53226 31.185342z m-131.071523 0h-5.678525a29.975164 29.975164 0 0 1-28.485715-31.185342v-258.884876a29.975164 29.975164 0 0 1 28.485715-31.185342h5.678525a29.975164 29.975164 0 0 1 28.485714 31.185342v258.884876a29.975164 29.975164 0 0 1-28.392624 31.185342z"
          fill="#1FB2A1" p-id="18830"></path>
</svg>