<?xml version="1.0" standalone="no"?><!DOCTYPE svg PUBLIC "-//W3C//DTD SVG 1.1//EN"
        "http://www.w3.org/Graphics/SVG/1.1/DTD/svg11.dtd">
<svg t="1766820627841" class="icon" viewBox="0 0 1024 1024" version="1.1" xmlns="http://www.w3.org/2000/svg"
     p-id="22325" xmlns:xlink="http://www.w3.org/1999/xlink" width="24" height="24">
    <path d="M453.91872 273.24928h118.7328v14.848h-118.7328z" fill="#E55A4A" p-id="22326"></path>
    <path d="M513.28 0C231.2192 0 2.56 228.6592 2.56 510.72c0 282.07104 228.65408 510.72 510.72 510.72S1024 792.79104 1024 510.72512 795.34592 0 513.28 0z m222.6176 748.52864c0 32.5888-27.17184 59.01824-60.70784 59.01824H351.37024c-33.52576 0-60.71296-26.42944-60.71296-59.01824v-354.048c0-0.4864 27.19232 0 60.71296 0h28.33408v338.86208h44.52864V394.48064h74.20416v338.86208h44.5184V394.48064h74.20928v338.86208h44.5184V394.48064h13.50144c33.54624 0 60.70784-2.49344 60.70272 0l0.01024 354.048z m29.17376-401.07008h-503.552c-16.70144 0-30.22336-13.2864-30.22336-29.68064 0-16.39424 13.53216-29.68064 30.22336-29.68064H394.5472v-36.20864c0-20.99712 37.50912-38.00064 59.3664-38.00064h118.72768c21.86752 0 59.37152 17.00352 59.37152 38.00064v36.20864h133.05344c16.67584 0 30.19264 13.2864 30.19264 29.68064 0 16.39424-13.50144 29.68064-30.18752 29.68064z"
          fill="#E55A4A" p-id="22327"></path>
</svg>