<?xml version="1.0" standalone="no"?><!DOCTYPE svg PUBLIC "-//W3C//DTD SVG 1.1//EN"
        "http://www.w3.org/Graphics/SVG/1.1/DTD/svg11.dtd">
<svg t="1766820233976" class="icon" viewBox="0 0 1024 1024" version="1.1" xmlns="http://www.w3.org/2000/svg" p-id="8675"
     xmlns:xlink="http://www.w3.org/1999/xlink" width="24" height="24">
    <path d="M843.80672 210.944h-192.08704v-9.81504c0-48.1536-42.7264-87.32672-95.232-87.32672h-87.04c-52.54144 0-95.2576 39.168-95.2576 87.32672v9.78432h-193.9968c-36.66432 0-66.36032 33.22368-66.36032 74.24 0 40.96 29.696 74.2144 66.36032 74.2144H198.656v443.27936c0 56.63232 50.944 107.5456 113.78176 107.5456h399.1296c62.83776 0 113.78176-50.944 113.78176-107.5456V359.36768h18.4576c36.66944 0 66.36032-33.22368 66.36032-74.2144 0-40.9856-29.69088-74.20928-66.36032-74.20928z m-424.07936-9.81504c0-23.0656 22.32832-41.84064 49.75104-41.84064h87.04c27.4176 0 49.72032 18.77504 49.72032 41.84064v9.78432H419.72736v-9.78432z m360.11008 601.5232c0 33.0496-31.91296 62.03392-68.27008 62.03392h-399.104c-36.35712 0-68.27008-28.98432-68.27008-62.03392V362.496h535.63904v440.15616zM843.80672 313.856H180.19328c-11.12064 0-20.84864-13.39392-20.84864-28.6976 0-15.55456 9.55904-28.7232 20.84864-28.7232h663.60832c11.29472 0 20.84864 13.13792 20.84864 28.7232 0.03584 15.30368-9.72288 28.6976-20.84352 28.6976z"
          fill="#42B4A2" p-id="8676"></path>
    <path d="M369.46432 742.23104a28.4416 28.4416 0 0 0 28.44672-28.4416V486.20032a28.44672 28.44672 0 1 0-56.89344-0.02048v227.6096a28.44672 28.44672 0 0 0 28.44672 28.4416z m285.07136 0a28.44672 28.44672 0 0 0 28.45184-28.4416V486.20032a28.45184 28.45184 0 0 0-56.89344 0v227.58912a28.4416 28.4416 0 0 0 28.4416 28.4416zM512 764.45184a28.44672 28.44672 0 0 0 28.44672-28.45184V463.98464a28.4416 28.4416 0 1 0-56.89344-0.02048v272.03584a28.45184 28.45184 0 0 0 28.44672 28.45184z"
          fill="#42B4A2" p-id="8677"></path>
</svg>