<?xml version="1.0" standalone="no"?><!DOCTYPE svg PUBLIC "-//W3C//DTD SVG 1.1//EN"
        "http://www.w3.org/Graphics/SVG/1.1/DTD/svg11.dtd">
<svg t="1766820569931" class="icon" viewBox="0 0 1024 1024" version="1.1" xmlns="http://www.w3.org/2000/svg"
     p-id="16009" xmlns:xlink="http://www.w3.org/1999/xlink" width="24" height="24">
    <path d="M873.525261 147.003104C896.999411 147.003104 916.365619 150.892595 931.628186 158.670153 946.885024 166.447711 959.013978 176.17215 968.013619 187.837775 977.014694 199.504823 983.271888 212.144601 986.792365 225.757107 990.312845 239.371037 992.075232 252.005118 992.075232 263.676439 992.075232 269.118309 991.880365 273.395182 991.48777 276.511332 991.096605 279.621786 990.900307 282.342008 990.900307 284.677697L990.900307 291.676217 913.432605 291.676217 913.432605 904.193424C913.432605 919.748541 910.303293 934.72543 904.040365 949.112701 897.783171 963.504243 888.78353 976.144022 877.045741 987.032032 865.309382 997.918621 851.02544 1006.67033 834.201082 1013.284317 817.376723 1019.894032 798.010515 1023.198176 776.098157 1023.198176L252.592963 1023.198176C232.248127 1023.198176 213.078217 1020.087722 195.0775 1013.86824 177.083948 1007.643059 161.629381 998.892774 148.718097 987.615955 135.805381 976.339139 125.629381 962.725206 118.197262 946.781286 110.763709 930.837363 107.048366 912.750019 107.048366 892.527798L107.048366 291.676217 34.270336 291.676217C33.492306 290.89718 33.099709 288.950298 33.099709 285.841268 32.315948 281.951778 31.924784 269.895922 31.924784 249.673702 31.924784 239.566153 34.270336 228.283638 38.965739 215.837552 43.661142 203.39289 50.702097 191.920957 60.094336 181.423177 69.486575 170.9197 81.61553 162.169413 96.481202 155.170893 111.352605 148.172373 128.954993 144.673113 149.30556 144.673113L253.767888 144.673113 253.767888 73.501552C253.767888 53.279332 260.808844 35.971027 274.896485 21.585179 288.984127 7.192211 306.195351 0 326.545917 0L693.933619 0C721.326576 0 740.300186 7.192211 750.86735 21.585179 761.428784 35.971027 766.711651 53.279332 766.711651 73.501552L766.711651 145.83526C783.144845 146.614298 800.747232 147.003104 819.531709 147.003104L873.525261 147.003104 873.525261 147.003104ZM326.545917 147.003104 693.933619 147.003104 693.933619 73.501552 326.545917 73.501552 326.545917 147.003104ZM290.154754 885.52928C315.194993 885.52928 327.716544 869.585357 327.716544 837.69609L327.716544 296.344746 254.942814 296.344746 254.942814 837.69609C254.942814 854.030243 257.484665 866.086096 262.572665 873.863654 267.659232 881.641213 276.855172 885.52928 290.154754 885.52928L290.154754 885.52928ZM512.00359 884.361437C525.301741 884.361437 534.301382 880.667059 538.998218 873.278307 543.693619 865.890982 546.039171 854.030243 546.039171 837.69609L546.039171 296.344746 473.266874 296.344746 473.266874 837.69609C473.266874 868.80632 486.178157 884.361437 512.00359 884.361437L512.00359 884.361437ZM732.670336 882.030019C746.759411 882.030019 756.144486 878.335645 760.841322 870.942621 765.536723 863.553869 767.882275 851.69313 767.882275 835.358976L767.882275 296.344746 693.933619 296.344746 693.933619 835.358976C693.933619 866.469206 706.846336 882.030019 732.670336 882.030019L732.670336 882.030019Z"
          fill="#369E69" p-id="16010"></path>
</svg>