<?xml version="1.0" standalone="no"?><!DOCTYPE svg PUBLIC "-//W3C//DTD SVG 1.1//EN"
        "http://www.w3.org/Graphics/SVG/1.1/DTD/svg11.dtd">
<svg t="1767083468856" class="icon" viewBox="0 0 1024 1024" version="1.1" xmlns="http://www.w3.org/2000/svg"
     p-id="14765" xmlns:xlink="http://www.w3.org/1999/xlink" width="24" height="24">
    <path d="M 0 539.783 v -55.5659 a 48.7392 48.7392 0 0 0 6.74729 -41.7538 C 22.6233 228.614 225.836 25.6397 442.305 6.50915 A 49.0567 49.0567 0 0 0 484.217 0 h 55.5659 a 49.0567 49.0567 0 0 0 41.9126 6.50915 c 216.469 19.1305 419.205 222.264 435.557 435.954 A 48.7392 48.7392 0 0 0 1024 484.217 v 55.5659 a 48.7392 48.7392 0 0 0 -6.74729 41.7538 c -16.3522 214.326 -221.549 419.205 -435.716 435.716 A 48.5011 48.5011 0 0 0 539.783 1024 h -55.5659 a 48.5011 48.5011 0 0 0 -41.7538 -6.74729 c -214.326 -16.511 -419.443 -221.787 -435.716 -435.716 A 48.7392 48.7392 0 0 0 0 539.783 Z m 230.202 -120.816 c 0.555659 83.5076 58.9792 159.474 136.93 179.16 c 13.9709 3.49271 27.7036 6.98543 31.7519 -10.6369 c 4.04837 -15.876 -10.4781 -18.7336 -21.5119 -22.782 c -3.73085 -1.34946 -7.93798 -1.90512 -11.4307 -3.33395 c -64.6152 -24.6871 -106.607 -86.2859 -102.479 -150.107 a 154.87 154.87 0 0 1 122.721 -142.884 c 69.378 -15.0822 138.121 15.1615 169.952 79.3798 c 13.3358 26.751 23.814 37.8642 56.2009 25.7191 c 51.2 -18.9718 107.718 12.7008 123.912 62.8688 a 101.289 101.289 0 0 1 -59.9318 127.008 c -7.38233 2.93705 -15.1615 4.68341 -22.782 7.14419 A 14.9234 14.9234 0 0 0 642.977 588.205 a 15.876 15.876 0 0 0 15.876 14.5265 a 97.796 97.796 0 0 0 30.6406 -5.63597 a 135.978 135.978 0 0 0 -64.8533 -261.953 c -27.0685 3.49271 -38.4198 -4.20713 -52.5495 -25.084 a 185.352 185.352 0 0 0 -210.674 -70.4099 A 187.971 187.971 0 0 0 230.202 418.967 Z m 273.384 291.721 l -11.9864 7.93798 c -9.4462 -12.3833 -18.4955 -25.1634 -28.6561 -36.8322 a 14.4471 14.4471 0 0 0 -21.1944 -2.22264 a 16.3522 16.3522 0 0 0 -6.03287 17.5429 c 2.06388 9.76372 70.6481 78.3479 80.4118 80.0943 a 23.3377 23.3377 0 0 0 21.8295 -6.50915 c 21.3532 -21.6707 42.7064 -43.262 63.5039 -65.3296 a 15.876 15.876 0 0 0 0 -24.5284 c -8.6524 -8.49364 -16.8285 -5.00093 -24.2902 1.90512 c -11.1132 10.24 -21.9882 20.6388 -38.5786 36.1972 V 585.109 c 0 -13.7327 -0.714419 -28.9736 -18.9718 -28.2592 c -15.876 0.635039 -15.876 15.1615 -15.876 27.2273 c 0.07938 42.2301 0.15876 84.4602 0.15876 126.611 Z"
          fill="#0080cd" p-id="14766"></path>
    <path d="M 442.305 6.50915 A 14.4471 14.4471 0 0 1 444.527 0 h 39.6899 a 49.0567 49.0567 0 0 1 -41.9126 6.50915 Z M 579.473 0 a 14.4471 14.4471 0 0 1 2.22264 6.50915 A 49.0567 49.0567 0 0 1 539.783 0 Z"
          fill="#3a9dd8" p-id="14767"></path>
    <path d="M 0 444.527 a 5.15969 5.15969 0 0 1 6.74729 -2.06388 A 48.7392 48.7392 0 0 1 0 484.217 Z" fill="#2f98d6"
          p-id="14768"></path>
    <path d="M 1017.25 442.463 a 5.15969 5.15969 0 0 1 6.74729 2.06388 v 39.6899 a 48.7392 48.7392 0 0 1 -6.74729 -41.7538 Z"
          fill="#3098d6" p-id="14769"></path>
    <path d="M 6.74729 581.537 H 2.93705 L 0 579.473 v -39.6899 a 48.7392 48.7392 0 0 1 6.74729 41.7538 Z"
          fill="#2f98d6" p-id="14770"></path>
    <path d="M 1024 579.473 l -2.93705 2.3814 h -3.81023 A 48.7392 48.7392 0 0 1 1024 539.783 Z M 444.527 1024 c -0.714419 -2.22264 -1.42884 -4.44527 -2.06388 -6.74729 A 48.5011 48.5011 0 0 1 484.217 1024 Z M 581.537 1017.25 c -0.635039 2.30202 -1.34946 4.52465 -2.06388 6.74729 h -39.6899 a 48.5011 48.5011 0 0 1 41.7538 -6.74729 Z"
          fill="#3098d6" p-id="14771"></path>
    <path d="M 230.202 418.967 a 187.971 187.971 0 0 1 130.977 -179.637 A 185.352 185.352 0 0 1 572.17 309.581 c 14.1296 20.8769 25.4809 28.5767 52.5495 25.084 a 135.978 135.978 0 0 1 64.8533 261.953 a 97.796 97.796 0 0 1 -30.6406 5.63597 a 15.876 15.876 0 0 1 -15.876 -14.5265 a 14.9234 14.9234 0 0 1 11.4307 -18.0192 c 7.93798 -2.46077 15.3997 -4.20713 22.782 -7.14419 a 101.289 101.289 0 0 0 59.9318 -127.008 c -15.876 -50.1681 -72.7119 -81.8406 -123.912 -62.8688 c -32.7045 12.1451 -42.8651 1.03194 -56.2009 -25.7191 c -31.7519 -63.9008 -100.574 -94.1445 -169.952 -79.3798 a 154.87 154.87 0 0 0 -122.721 142.884 c -4.12775 63.5039 37.8642 125.42 102.479 150.107 c 3.73085 1.42884 7.93798 1.9845 11.4307 3.33395 c 11.0338 4.04837 25.5603 7.06481 21.5119 22.782 c -4.44527 17.6223 -18.178 14.1296 -31.7519 10.6369 C 289.498 578.441 231.075 502.474 230.202 418.967 Z"
          fill="#f9fbfd" p-id="14772"></path>
    <path d="M 503.903 710.688 V 584.077 c 0 -12.0657 0 -26.5922 15.876 -27.2273 c 18.2574 -0.714419 18.9718 14.5265 18.9718 28.2592 v 133.676 c 16.5904 -15.876 27.4654 -25.9572 38.5786 -36.1972 c 7.46171 -6.90605 15.876 -10.3988 24.2902 -1.90512 a 15.876 15.876 0 0 1 0 24.5284 c -20.9563 22.0676 -42.3095 43.6589 -63.5039 65.3296 a 23.3377 23.3377 0 0 1 -21.8295 6.50915 c -9.76372 -1.74636 -78.3479 -70.3305 -80.4118 -80.0943 a 16.3522 16.3522 0 0 1 6.03287 -17.5429 a 14.4471 14.4471 0 0 1 21.1944 2.22264 c 10.1606 11.6688 19.2099 24.449 28.6561 36.8322 Z"
          fill="#f4f9fc" p-id="14773"></path>
</svg>