<?xml version="1.0" standalone="no"?><!DOCTYPE svg PUBLIC "-//W3C//DTD SVG 1.1//EN"
        "http://www.w3.org/Graphics/SVG/1.1/DTD/svg11.dtd">
<svg t="1766820912840" class="icon" viewBox="0 0 1024 1024" version="1.1" xmlns="http://www.w3.org/2000/svg"
     p-id="46360" xmlns:xlink="http://www.w3.org/1999/xlink" width="24" height="24">
    <path d="M944.713143 853.321143a91.428571 91.428571 0 0 1-91.428572 91.428571H170.642286a91.428571 91.428571 0 0 1-91.428572-91.428571V170.678857a91.428571 91.428571 0 0 1 91.428572-91.428571h298.642285a48.786286 48.786286 0 1 1 0 97.499428h-292.571428v670.500572h670.500571v-292.571429a48.786286 48.786286 0 1 1 97.499429 0v298.642286z"
          fill="#007E3D" p-id="46361"></path>
    <path d="M298.605714 570.038857v155.282286h156.086857l441.234286-441.417143-155.794286-155.904L298.569143 570.038857z"
          fill="#007E3D" p-id="46362"></path>
    <path d="M740.096 79.250286c12.946286 0 25.380571 5.12 34.523429 14.262857l155.794285 155.904c19.017143 19.053714 19.017143 49.92 0 68.973714l-441.234285 441.417143c-9.142857 9.142857-21.540571 14.262857-34.450286 14.299429H298.605714a48.786286 48.786286 0 0 1-48.749714-48.786286v-155.282286c0-12.909714 5.12-25.307429 14.262857-34.450286L705.609143 93.549714l3.584-3.291428c8.667429-7.094857 19.602286-10.971429 30.902857-11.008zM347.355429 590.226286V676.571429h87.149714L826.953143 283.904l-86.857143-86.930286L347.355429 590.226286z"
          fill="#007E3D" p-id="46363"></path>
</svg>