<?xml version="1.0" standalone="no"?><!DOCTYPE svg PUBLIC "-//W3C//DTD SVG 1.1//EN"
        "http://www.w3.org/Graphics/SVG/1.1/DTD/svg11.dtd">
<svg t="1766820876401" class="icon" viewBox="0 0 1024 1024" version="1.1" xmlns="http://www.w3.org/2000/svg"
     p-id="42302" xmlns:xlink="http://www.w3.org/1999/xlink" width="24" height="24">
    <path d="M867.11 950.915a66.01 66.01 0 0 1-63.462 67.901h-700.85c-36.243-1.164-64.772-31.658-66.228-68.192v-749.03c1.601-36.388 30.058-66.81 66.228-67.974H665.08L769.952 21.106a52.109 52.109 0 0 1 75.107 0l117.9 126.633a59.969 59.969 0 0 1 0 80.201L867.11 330.047v620.795zM722.575 791.75H201.849a32.75 32.75 0 0 0-32.532 32.822c0 18.195 14.556 32.75 32.532 32.823h520.725a32.75 32.75 0 0 0 32.604-32.823 32.75 32.75 0 0 0-32.604-32.75z m-8.442-612.498v0.072l-304.212 325.9-31.876 141.188 133.401-31.585 305.667-325.68-102.98-109.895z m196.354 8.005L807.506 77.29l-58.95 63.317L851.462 250.5l58.95-63.317z"
          fill="#0D867F" p-id="42303"></path>
</svg>