<?xml version="1.0" standalone="no"?><!DOCTYPE svg PUBLIC "-//W3C//DTD SVG 1.1//EN" "http://www.w3.org/Graphics/SVG/1.1/DTD/svg11.dtd"><svg class="icon" width="16px" height="16.00px" viewBox="0 0 1024 1024" version="1.1" xmlns="http://www.w3.org/2000/svg"><path fill="#07c160" d="M497.265778 804.522667c0 85.504 34.986667 162.816 91.306666 218.510222-25.031111 0.625778-50.176 0.910222-75.093333 0.910222-246.840889 0-513.536-26.624-513.536-143.985778v-32.256c0-86.072889 181.987556-173.283556 337.180445-221.184 11.207111-3.470222 85.390222-46.990222 34.816-95.345777-84.878222-76.856889-115.313778-158.776889-117.475556-263.566223 0-163.498667 109.340444-267.662222 257.422222-267.662222 148.138667 0 254.748444 104.049778 254.748445 267.662222-2.446222 104.504889-29.411556 186.083556-113.493334 262.883556a103.253333 103.253333 0 0 0-9.045333 11.946667 306.972444 306.972444 0 0 0-146.830222 262.087111z m307.2 219.420444a219.363556 219.363556 0 1 1 0-438.784 219.363556 219.363556 0 0 1 0 438.784z m-43.861334-263.338667h-58.538666a43.861333 43.861333 0 1 0 0 87.779556h58.538666v58.538667a43.804444 43.804444 0 1 0 87.779556 0v-58.538667h58.538667a43.804444 43.804444 0 1 0 0-87.779556h-58.538667v-58.481777a43.918222 43.918222 0 1 0-87.779556 0v58.481777z"  /></svg>