<?xml version="1.0" standalone="no"?><!DOCTYPE svg PUBLIC "-//W3C//DTD SVG 1.1//EN" "http://www.w3.org/Graphics/SVG/1.1/DTD/svg11.dtd"><svg class="icon" width="16px" height="11.45px" viewBox="0 0 1431 1024" version="1.1" xmlns="http://www.w3.org/2000/svg"><path fill="#07c160" d="M637.405551 378.951304l41.436817 81.188296 1.279319 0 0 0.605468-51.669942 0 0 18.698282 51.669942 0 0 27.697676-51.669942 0 0 18.656968 51.669942 0 0 108.206423-38.91522 0 0 18.664091 147.282626 0 0-18.664091-36.956353 0 0-108.206423 49.733868 0 0-18.656968-49.733868 0L751.53274 479.444774l49.733868 0 0-18.698282-49.733868 0 0-5.141493-0.623988 0L794.23178 378.951304l0-0.606893 32.549969 0 0-18.702556-89.290172 0 0 18.702556 23.412386 0-43.790308 77.259164-6.816859 0-39.918161-77.259164 21.843867 0 0-18.702556L602.946577 359.641855l0 18.702556 34.458975 0L637.405551 378.951304 637.405551 378.951304zM897.550294 243.480293 897.550294 74.288267c-11.458307-52.778305-77.441516-47.391775-91.287505 0L806.262789 243.480293l-32.906127 0L773.356662 37.353283c-22.393775-50.179778-70.358251-49.427572-91.321696 0L682.034966 243.480293l-32.871936 0 0-171.440094c-19.699797-41.965355-69.178657-50.997516-91.321696 0l0 171.440094L524.976522 243.480293 524.976522 111.156292c-15.826226-40.257223-68.181415-53.423662-91.32597 0l0 132.324001L276.378413 243.480293l0 483.099494 162.375167 0c4.802431 164.693042 130.526117 297.420213 284.035805 297.420213 153.509688 0 279.250469-132.725747 284.035805-297.420213l146.530421 0L1153.355611 243.480293 897.550294 243.480293 897.550294 243.480293zM1122.948287 700.561751 1002.612556 700.561751 1002.612556 476.484391c-15.826226-82.010308-68.125854-108.811891-91.287505 0L911.325051 700.561751 302.088729 700.561751 302.088729 271.816203l820.859558 0L1122.948287 700.561751 1122.948287 700.561751zM1122.948287 700.561751"  /></svg>