<?xml version="1.0" standalone="no"?><!DOCTYPE svg PUBLIC "-//W3C//DTD SVG 1.1//EN" "http://www.w3.org/Graphics/SVG/1.1/DTD/svg11.dtd"><svg class="icon" width="16px" height="16.00px" viewBox="0 0 1024 1024" version="1.1" xmlns="http://www.w3.org/2000/svg"><path fill="#07c160" d="M863.104 348.896c-25.504-28.352-53.888-51.072-82.24-70.912-5.696-2.848-8.512-5.664-14.208-8.512 39.712-19.84 68.096-56.736 68.096-99.264 0-68.096-65.248-119.136-144.64-119.136a132.48 132.48 0 0 0-48.256 8.48c-8.512 2.88-11.328 5.696-17.024 8.512-2.816 0-8.512 0-11.328-2.816a133.312 133.312 0 0 0-28.384-31.2C562.432 14.208 536.896 2.848 508.544 0c-28.352 2.848-53.888 14.176-76.576 34.048-11.36 11.328-22.72 19.84-28.384 31.2 0-2.848-5.664 0-8.512-2.848-2.816-2.848-8.512-5.664-17.024-8.512a132.48 132.48 0 0 0-48.224-8.512c-76.576 0-144.64 51.072-144.64 119.136 0 42.56 28.352 79.424 68.064 99.296-2.848 2.816-8.512 5.664-14.176 8.512-28.384 19.84-56.736 45.376-82.24 70.912C80.192 422.656 32 513.408 32 612.672 32 890.72 247.584 1024 505.696 1024h11.36c258.112 0 473.696-133.312 473.696-411.296-2.816-96.448-51.04-187.2-127.648-263.808z m-212.736 286.496c17.024 0 28.384 11.36 28.384 28.352 0 17.024-11.36 28.384-28.384 28.384h-113.472v110.624c0 17.024-11.328 28.352-28.352 28.352s-28.352-11.328-28.352-28.352v-110.624H366.72c-17.024 0-28.384-11.36-28.384-28.384 0-16.992 11.36-28.352 28.384-28.352h113.472v-68.064H363.84c-17.024 0-28.352-11.36-28.352-28.384s11.328-28.352 28.352-28.352h85.12l-93.632-93.632a27.424 27.424 0 0 1 0-39.68 27.424 27.424 0 0 1 39.712 0l113.472 113.44 113.472-113.472a27.424 27.424 0 0 1 39.68 0 27.424 27.424 0 0 1 0 39.712l-93.6 93.632h85.12c17.024 0 28.352 11.328 28.352 28.352s-11.328 28.384-28.352 28.384h-116.32v68.064h113.472z"  /></svg>