<?xml version="1.0" standalone="no"?><!DOCTYPE svg PUBLIC "-//W3C//DTD SVG 1.1//EN" "http://www.w3.org/Graphics/SVG/1.1/DTD/svg11.dtd"><svg class="icon" width="16px" height="16.00px" viewBox="0 0 1024 1024" version="1.1" xmlns="http://www.w3.org/2000/svg"><path fill="#07c160" d="M645.8368 260.4544c0 122.6368-95.9232 222.08-214.336 222.08-118.336 0-214.2592-99.4432-214.2592-222.08C217.2416 137.8048 313.1648 38.4 431.5008 38.4c118.4128 0 214.336 99.4048 214.336 222.0544zM788.7104 976.0384c-111.7824 0-202.3936-93.9008-202.3936-209.7408 0-115.8272 90.624-209.728 202.3936-209.728 111.7824 0 202.3936 93.9008 202.3936 209.728 0 115.84-90.624 209.7408-202.3936 209.7408z m35.072-226.56l72.064-118.8864h-51.2512l-54.3488 101.6832h-2.304l-53.5808-101.6832h-52.8l70.144 118.8992h-45.8624v28.16h58.9696v28.16h-58.9696v27.7632h58.9696v68.4416h45.8624v-68.4416h59.7504v-27.776h-59.7504v-28.16h59.7504v-28.16h-46.6432z"  /><path fill="#07c160" d="M645.8368 531.8784c-85.0176 38.9504-144.2816 126.5024-144.2816 228.2624 0 63.9744 23.424 122.3424 61.9648 166.5536H14.848c0-245.2992 193.6896-444.16 432.64-444.16a421.7984 421.7984 0 0 1 198.3488 49.344z"  /></svg>