<?xml version="1.0" standalone="no"?><!DOCTYPE svg PUBLIC "-//W3C//DTD SVG 1.1//EN"
        "http://www.w3.org/Graphics/SVG/1.1/DTD/svg11.dtd">
<svg t="1766822622978" class="icon" viewBox="0 0 1024 1024" version="1.1" xmlns="http://www.w3.org/2000/svg"
     p-id="54097" xmlns:xlink="http://www.w3.org/1999/xlink" width="32" height="32">
    <path d="M852.535586 0H171.446351C77.143633 0 0 77.143633 0 171.446351V852.535586c0 94.302718 77.143633 171.446351 171.446351 171.446352H852.535586c94.302718 0 171.446351-77.143633 171.446352-171.446352V171.446351C1024 77.143633 946.856367 0 852.535586 0zM202.928757 750.845431s-57.799023-11.324996-75.861218-25.449633c-0.90311-15.894731-3.215071-33.180252 0.90311-50.014216 7.712557-58.196391 117.747447-85.92186 150.927698-112.744219 3.612439-2.745454 5.906338-13.203464 5.906338-16.382411 0-14.991622-3.612439-19.994849-3.612439-19.994849s-59.117563-38.183479-58.214453-135.46646c1.354665-41.344364 22.758365-114.568501 103.225442-114.568501h4.551673a100.642548 100.642548 0 0 1 36.810753 6.82751c-12.643536 30.470922-43.186707 110.919937 40.477378 232.785564 25.449632 21.819131 14.991622 39.556206 1.354664 48.189936-9.031097 5.942462-17.28552 8.200236-23.62535 10.45801-117.765509 44.559434-165.955444 102.286208-173.216447 137.760359a308.520346 308.520346 0 0 1-9.627149 38.59891z m305.50396 59.117563c-74.560739 0-130.047801-3.178946-170.489056-8.615667-147.315259-19.561357-103.189318-67.769354-95.47676-98.222215 9.554901-71.85141 159.127935-105.483217 200.49036-138.663468 4.533611-3.612439 11.794613-12.282292 11.794613-16.38241 0-18.170568-9.031097-28.628578-9.031097-28.628579s-74.596864-47.73838-73.206075-168.249343c1.806219-51.350819 29.080133-142.293969 130.047801-142.293969h5.418659c96.86755 0 128.241582 91.394705 130.047801 142.275907 1.354665 127.753903-73.206075 168.231281-73.206075 168.231281s-4.533611 6.375955-4.533611 24.546522c0 4.100118 2.727391 16.833965 7.224878 20.464467C608.930767 597.641896 759.858466 632.176812 770.316476 704.42559c9.554901 39.158838 80.41289 105.537403-261.883759 105.537404z m388.337184-85.01875c-19.525232 14.991622-95.025206 26.352742-95.025206 26.352742s-3.178946-18.622123-9.554901-48.623428c-7.712557-35.943767-34.534916-70.912176-135.46646-116.392783 17.267458 8.182174-94.140158-21.367576-60.472227-71.381793 85.470305-69.593636 65.023901-173.216446 48.207997-230.076235a106.928192 106.928192 0 0 1 43.656325-8.633729h4.515548c78.67892 0 104.128552 73.675692 105.934772 114.568501 0.939234 96.86755-59.605242 135.46646-59.605242 135.466459s-3.612439 5.003228-3.612439 19.99485c0 3.178946 1.806219 13.185402 5.9244 16.38241 34.101423 26.822359 147.315259 54.547828 155.045878 112.310726 4.045932 16.87009 1.372727 34.101423 0.397368 50.03228z"
          fill="#07c160" p-id="54098"></path>
</svg>

