<?xml version="1.0" standalone="no"?><!DOCTYPE svg PUBLIC "-//W3C//DTD SVG 1.1//EN"
        "http://www.w3.org/Graphics/SVG/1.1/DTD/svg11.dtd">
<svg t="1766821965763" class="icon" viewBox="0 0 1042 1024" version="1.1" xmlns="http://www.w3.org/2000/svg"
     p-id="53263" data-spm-anchor-id="a313x.search_index.0.i12.51cf3a81O5ANsk"
     xmlns:xlink="http://www.w3.org/1999/xlink" width="24" height="24">
    <path d="M412.31575 316.2624l222.6688-222.6688s35.072-41.4208 81.2032-0.512c46.08 40.8576 268.2368 267.2128 285.0304 283.9552 0 0 56.064 68.096-14.6944 134.144s-100.608 89.6-100.608 89.6l-256.2048-262.1952-25.1392-17.5616-64.4608 59.7504s-42.4448 47.1552-86.4256 33.024c-44.032-14.1312-88.0128-51.8656-88.0128-51.8656l46.6432-45.6704z"
          fill="#07c160" p-id="53264" data-spm-anchor-id="a313x.search_index.0.i11.51cf3a81O5ANsk"
          class="selected"></path>
    <path d="M998.76055 350.1056L752.33495 103.68c-47.616-47.616-96.768-53.1456-134.8096-15.104L504.68055 201.4208l-13.7216-9.8816c-31.232-22.4768-64.3072-38.656-93.44-52.992l-5.2736-2.6112c-5.5296-3.072-11.4688-6.0416-16.896-8.448l-6.7584-3.0208c-24.4736-12.4416-48.4864-23.1936-71.2704-23.1936-16.64 0-32.6656 5.7344-47.7184 20.7872L36.04695 335.616c-40.1408 40.1408-36.8128 74.0352-35.2256 90.3168 0.8192 2.6624 0.9216 5.376 0.9728 7.3728 1.1776 15.8208 16.4352 35.1232 41.2672 65.28 4.4032 5.0176 9.4208 10.752 13.8752 16.6912 13.8752 17.664 24.5248 35.2256 34.816 52.1728l4.9664 8.1408c17.92 29.1328 38.2464 62.1568 79.2576 103.1168l267.4176 268.0832c18.432 18.3808 42.1376 30.4128 66.7648 33.7408 3.328 0.4608 7.8336 0.4608 11.776 0.4608 20.1728 0 37.9392-6.912 50.0224-19.5072 13.056-13.056 95.3344-85.4528 171.4176-152.32l50.0736-44.0832c37.7344-33.1776 64.9728-57.1904 69.888-62.1056 10.1888-10.1888 23.0912-33.2288 28.0576-57.6 1.0752-5.3248 1.7408-10.8544 1.9968-16.384l0.3584-7.7312 122.0096-122.0096c19.8144-19.8144 29.0304-43.6224 26.624-68.7616-2.5088-26.5216-17.6128-54.3744-43.6224-80.384z m-135.8848 299.0592c-4.096 13.1072-11.1616 25.088-15.872 31.3344l0.1536 0.1024-2.2528 2.5088c-1.4336 1.6384-4.3008 4.4544-15.0016 14.1312l-14.0288 12.6976-125.952-125.952c-5.376-5.376-13.7728-5.376-19.1488 0s-5.376 13.7728 0 19.1488l124.7744 124.7744-15.9232 14.0288c-12.6464 11.1104-26.112 22.9376-39.5776 34.7136l-14.0288 12.288-120.1664-120.1664a13.38368 13.38368 0 0 0-19.1488 0c-2.6112 2.6112-4.0448 5.9904-4.0448 9.5744 0 3.584 1.4336 6.9632 4.0448 9.5744l118.9888 118.9888-15.9232 14.0288c-16.8448 14.7968-32.4608 28.6208-46.7456 41.216L628.94295 874.496l-114.432-114.432a13.38368 13.38368 0 0 0-19.1488 0 13.38368 13.38368 0 0 0 0 19.1488l113.2544 113.2544-15.7184 14.0288c-21.7088 19.4048-35.072 31.5904-39.7312 36.1984l-1.024 0.9728c-7.424 6.4-18.0736 9.8816-30.0032 9.8816-2.7648 0-5.6832-0.2048-8.6528-0.5632-18.432-2.6112-36.9664-12.1344-50.8928-26.0096l-267.4176-267.4176c-40.192-40.192-57.9584-70.0416-76.8-101.6832l-0.4608-0.768c-11.8272-19.712-22.9888-38.2464-39.8848-59.5456-2.1504-2.8672-4.352-5.4784-6.5536-8.192l-0.3584-0.4608c-2.2528-2.7648-4.608-5.5296-6.8096-8.3456l-1.9456-2.304c-18.432-22.0672-28.5184-35.0208-32.3584-44.288-1.9968-4.3008-2.2528-7.9872-2.304-10.3424-1.8432-19.968-1.1264-40.192 27.4944-68.8128l212.1728-213.504c23.2448-23.2448 48.5888-12.3392 88.064 7.424l5.7344 3.1744c6.7072 2.7136 13.4144 6.0928 19.8656 9.3184 25.088 12.0832 55.9104 26.88 84.3264 45.8752l20.1728 13.4656-132.096 132.1472c-2.7136 2.56-4.096 5.632-4.096 9.216-0.0512 3.6352 1.3312 7.0656 3.7888 9.6768 57.4464 60.3648 139.1104 72.2432 189.952 27.648 13.5168-11.9808 30.0544-27.7504 49.152-46.8992l14.08-14.1312 241.2544 241.2544c18.176 18.2272 23.6544 43.008 15.3088 69.6832z m133.7856-168.96l-107.7248 107.7248-13.824-17.9712c-2.6624-3.4304-5.4784-6.656-8.448-9.6256l-241.6128-241.5616 26.2656-27.8528c5.0176-5.6832 4.7104-14.0288-0.768-18.9952-2.816-2.56-6.3488-3.8912-9.9328-3.7376-3.584 0.1024-6.8608 1.6384-9.2672 4.3008l-1.2288 1.28c-19.4048 20.8384-68.4032 72.7552-104.9088 104.8064-31.1808 27.0848-79.4624 26.4704-123.0848-1.4848l-20.7872-13.3632 256-256c17.408-17.408 32.6656-17.9712 42.5472-16.896l1.024 0.1536c16.2816 2.7136 33.8432 13.4144 52.2752 31.8464l246.3744 246.3744c57.8048 57.8048 31.232 96.8704 17.1008 111.0016z"
          p-id="53265"></path>
</svg>
