<?xml version="1.0" standalone="no"?><!DOCTYPE svg PUBLIC "-//W3C//DTD SVG 1.1//EN" "http://www.w3.org/Graphics/SVG/1.1/DTD/svg11.dtd"><svg class="icon" width="16px" height="16.00px" viewBox="0 0 1024 1024" version="1.1" xmlns="http://www.w3.org/2000/svg"><path fill="#07c160" d="M945.934099 879.515233c0 87.06203-57.325061 125.068914-130.234899 138.342021V1020.60304h-17.896445a538.304248 538.304248 0 0 1-116.755587 0H342.588372a538.304248 538.304248 0 0 1-116.755587 0H218.789248v-0.911645C140.767691 1008.284989 77.701441 970.853308 77.701441 879.515233a434.116329 434.116329 0 0 1 242.942351-389.793052 282.175614 282.175614 0 1 1 382.347956 0A434.116329 434.116329 0 0 1 945.934099 879.515233zM587.788127 597.339619H446.700321l43.411632 65.117449-43.411632 141.087807 68.731467 54.264541L587.788127 803.544875l-43.411632-137.473788z"  /></svg>